# Blender v2.76 (sub 0) OBJ File: ''
# www.blender.org
mtllib cube.mtl
o cube_cube.001
v 0.000000 0.000000 0.000000
v 1.000000 0.000000 0.000000
v 1.000000 0.000000 -1.000000
v 0.000000 0.000000 -1.000000
v 0.000000 1.000000 0.000000
v 1.000000 1.000000 0.000000
v 1.000000 1.000000 -1.000000
v 0.000000 1.000000 -1.000000
vn 0.000000 1.000000 0.000000
vn 0.000000 0.000000 1.000000
usemtl None
s off
f 1//1 2//1 3//1
f 1//1 3//1 4//1
f 1//2 2//2 6//2
f 1//2 6//2 5//2
f 5//1 6//1 7//1
f 5//1 7//1 8//1
f 7//2 8//2 4//2
f 7//2 4//2 3//2
